<svg xmlns="http://www.w3.org/2000/svg" viewBox="0 0 204.998 42.041"><g style="stroke-width:1.174649;stroke-miterlimit:4;stroke-dasharray:none;display:inline"><g style="stroke-width:1.27372122;stroke-miterlimit:4;stroke-dasharray:none" transform="matrix(.82223 0 0 .74965 -412.584 -206.606)"><g id="tincture2-3" style="stroke-width:1.27372122;stroke-miterlimit:4;stroke-dasharray:none"><path d="M538.867 287.402s-13.526-3.23-19.252-2.193c-3.043.551-6.812 2.74-9.277 4.698-1.995 1.585-3.894 4.2-4.998 6.56-1.45 3.1-2.956 7.666-2.942 11.121.014 3.548 1.48 8.762 2.91 11.974 1.562 3.506 4.202 6.546 7.36 8.534 3.536 2.227 9.438 3.455 13.496 2.694 3.282-.616 7.108-2.281 9.527-4.697.786-.784 2.016-3.15 2.016-3.15s3.764 2.465 5.49 2.92c1.601.423 3.118.81 4.75.549 2.183-.35 5.22-.987 7.015-2.339 1.966-1.48 3.91-5.257 5.287-7.348 1.422-2.162 4.535-7.352 4.535-7.352z" style="fill:#ff0;stroke:gray;stroke-width:1.27372122;stroke-linecap:butt;stroke-linejoin:miter;stroke-miterlimit:4;stroke-opacity:1;stroke-dasharray:none;display:inline"/><path d="M526.104 309.013c-.828-.083-1.736.06-2.591.378-.856.317-1.674.797-2.247 1.547-.554.727-.74 1.616-.77 2.497s.114 1.753.475 2.503c.526 1.09 1.247 1.45 2.097 1.861.313.153.817.41 1.29.515.808.179 1.855.25 1.855.25s-.777-.487-1.384-1.025c-.398-.352-1.438-.768-1.651-.997-.588-.628-.997-1.12-1.121-1.707-.09-.426.04-.903.012-1.522-.027-.592.507-1.276.664-1.482.23-.302.854-.759 1.482-.992.63-.233 1.42-.038 1.868.007 1.255.126 2.344 1.602 3.437 2.833.442.497 1.019 1.56 1.412 2.57s1.4 2.12 2.039 3.043c.564.815 1.55 1.865 2.44 2.777a68 68 0 0 0 1.668 1.648l1.631-.607s-1.427-1.563-2.293-2.45-1.875-1.992-2.248-2.531c-.409-.591-1.402-1.571-1.807-2.611s-.83-2.15-1.603-3.02c-1.297-1.46-2.424-3.26-4.655-3.485" style="fill:gray;fill-opacity:1;fill-rule:evenodd;stroke:none"/></g><g id="tincture1-3" style="stroke-width:1.27372122;stroke-miterlimit:4;stroke-dasharray:none"><path d="M530.482 285.875s4.817-1.976 7.016-2.637c2.507-.753 6.131-.886 8.682-.326 2.144.47 5.032 2.22 5.032 2.22s2.758-2.947 4.133-3.87c2.374-1.593 5.482-1.457 8.212-.738 2.443.644 4.861 2.428 6.884 4.007 3.196 2.496 6.653 5.884 9.163 9.134 1.915 2.48 3.027 4.092 5.075 7.453 1.168 1.917 2.694 5.153 3.665 6.663 2.709 4.211 9.282 11.235 9.282 11.235s-5.596 3.054-8.536 3.713c-2.344.525-4.176.617-6.407-.302-1.441-.594-4.323-3.265-4.323-3.265s-3.653 3.438-5.319 3.945c-2.302.7-6.192.588-8.544.108-2.308-.47-5.115-1.208-7.054-2.607-3.646-2.631-6.007-5.148-8.746-8.8-1.497-1.996-3.45-6.767-5.208-10.18-1.202-2.335-3.35-5.4-4.376-6.763-1.957-2.598-3.764-4.713-5.95-7.102-.714-.781-2.68-1.888-2.68-1.888" style="fill:red;fill-opacity:1;fill-rule:evenodd;stroke:none"/><path d="M539.113 294.865c-1.957-2.598-3.764-4.713-5.95-7.102-.714-.781-2.68-1.888-2.68-1.888s4.816-1.976 7.015-2.637c2.507-.753 6.131-.886 8.682-.326 2.144.47 5.032 2.22 5.032 2.22s2.758-2.947 4.133-3.87c2.374-1.593 5.482-1.457 8.212-.738 2.443.644 4.861 2.428 6.884 4.007 3.196 2.496 6.653 5.884 9.163 9.134l-.105-.088s-8.15-3.902-12.64-1.906c-2.258 1.004-2.869 6.838-2.869 6.838s-10.899-6.99-16.265-5.117c-2.9 1.012-6.43 4.67-6.43 4.67z" style="fill:red;fill-opacity:1;fill-rule:evenodd;stroke:none;display:inline"/><path d="m552.142 284.563-1.691.867s5.473 3.345 7.04 4.75c1.631 1.463 6.032 7.09 6.032 7.09s-1.034-2.443-2.416-4.792c-.925-1.57-2.442-3.47-3.294-4.233-2.063-1.851-5.671-3.682-5.671-3.682m15.812 21.04s.267 1.575 1.668 4.226c1.159 2.192 3.744 5.79 4.72 6.834a178 178 0 0 0 3.453 3.547l1.97-.585s-5.134-5.026-6.128-6.09c-1.783-1.909-5.683-7.932-5.683-7.932" style="fill:gray;fill-opacity:1;fill-rule:evenodd;stroke:none"/><path d="M530.482 285.875s4.817-1.976 7.016-2.637c2.507-.753 6.131-.886 8.682-.326 2.144.47 5.032 2.22 5.032 2.22s2.758-2.947 4.133-3.87c2.374-1.593 5.482-1.457 8.212-.738 2.443.644 4.861 2.428 6.884 4.007 3.196 2.496 6.653 5.884 9.163 9.134 1.915 2.48 3.027 4.092 5.075 7.453 1.168 1.917 2.694 5.153 3.665 6.663 2.709 4.211 9.282 11.235 9.282 11.235s-5.596 3.054-8.536 3.713c-2.344.525-4.176.617-6.407-.302-1.441-.594-4.323-3.265-4.323-3.265s-3.653 3.438-5.319 3.945c-2.302.7-6.192.588-8.544.108-2.308-.47-5.115-1.208-7.054-2.607-3.646-2.631-6.007-5.148-8.746-8.8-1.497-1.996-3.45-6.767-5.208-10.18-1.202-2.335-3.35-5.4-4.376-6.763-1.957-2.598-3.764-4.713-5.95-7.102-.714-.781-2.68-1.888-2.68-1.888z" style="fill:none;stroke:gray;stroke-width:1.27372122;stroke-linecap:butt;stroke-linejoin:miter;stroke-miterlimit:4;stroke-opacity:1;stroke-dasharray:none;display:inline"/></g><g id="tincture2-2" style="stroke-width:1.27372122;stroke-miterlimit:4;stroke-dasharray:none"><path d="M568.706 283.076s4.933-2.918 7.132-3.58c2.506-.752 6.13-.885 8.682-.326 2.144.47 5.031 2.22 5.031 2.22s2.759-2.946 4.134-3.87c2.373-1.592 5.481-1.457 8.211-.737 2.444.644 7.09 2.596 9.112 4.175 3.196 2.495 7.554 3.266 10.064 6.517 1.916 2.48 3.202 4.842 5.25 8.202 1.169 1.917 3.397 7.029 4.368 8.538 2.71 4.212 4.914 11.656 4.914 11.656s-5.234 2.457-8.175 3.116c-2.343.526-4.175.618-6.406-.301-1.442-.595-4.324-3.265-4.324-3.265s-3.652 3.438-5.318 3.945c-2.302.7-6.192.588-8.544.108-2.309-.471-5.115-1.209-7.054-2.608-3.647-2.63-6.007-5.147-8.746-8.8-1.498-1.996-3.45-6.766-5.208-10.18-1.203-2.335-3.35-5.4-4.376-6.762-1.958-2.598-3.88-3.772-6.066-6.16-.715-.782-2.681-1.889-2.681-1.889z" style="fill:#ff0;stroke:gray;stroke-width:1.27372122;stroke-linecap:butt;stroke-linejoin:miter;stroke-miterlimit:4;stroke-opacity:1;stroke-dasharray:none;display:inline"/><path d="m590.41 280.454-1.785 1.117s1.528 1.033 3.208 2.202c1.526 1.06 3.179 2.254 3.925 2.924 1.63 1.462 6.094 6.808 6.094 6.808s-1.097-2.319-2.479-4.667c-.924-1.57-2.317-3.25-3.17-4.014-2.063-1.851-5.792-4.37-5.792-4.37m15.874 21.415s.482 2.295 1.884 4.946c1.158 2.191 3.653 4.82 4.63 5.865 1.368 1.464 3.453 3.421 3.453 3.421l1.472-.712s-4.948-4.869-5.942-5.933c-1.783-1.908-5.497-7.587-5.497-7.587" style="fill:gray;fill-opacity:1;fill-rule:evenodd;stroke:none"/></g><g id="tincture1-1" style="stroke-width:1.27372122;stroke-miterlimit:4;stroke-dasharray:none"><path d="M707.908 321.882s11.61 7.655 17.346 8.636c3.048.522 7.337-.248 10.323-1.247 2.417-.808 5.095-2.617 6.938-4.458 2.422-2.419 5.397-6.196 6.564-9.448 1.198-3.339 1.601-8.74 1.354-12.248-.27-3.829-1.714-7.587-4.003-10.535-2.563-3.3-7.69-6.47-11.765-7.14-3.294-.543-7.46-.284-10.558 1.16-1.006.469-2.97 2.273-2.97 2.273s-2.696-3.604-4.163-4.62c-1.36-.945-2.654-1.827-4.277-2.138-2.17-.417-5.243-.856-7.392-.198-2.353.72-5.47 3.605-7.478 5.1-2.076 1.547-6.774 5.362-6.774 5.362z" style="display:inline;fill:red;stroke:gray;stroke-width:1.27372122;stroke-linecap:butt;stroke-linejoin:miter;stroke-miterlimit:4;stroke-dasharray:none;stroke-opacity:1"/><path d="M727.285 305.93c.75.36 1.652.535 2.564.53.913-.007 1.845-.178 2.64-.688.77-.494 1.247-1.266 1.577-2.084.33-.817.491-1.686.408-2.514-.122-1.204-.677-1.788-1.335-2.466-.243-.25-.628-.664-1.037-.924-.698-.444-1.658-.869-1.658-.869s.564.724.951 1.436c.254.467 1.088 1.214 1.211 1.502.338.79.555 1.392.471 1.987-.06.431-.347.834-.532 1.425-.176.567-.912 1.027-1.13 1.167-.319.205-1.061.422-1.732.426-.67.004-1.347-.45-1.753-.645-1.136-.547-1.655-2.306-2.263-3.836-.245-.618-.424-1.814-.449-2.898-.024-1.084-.592-2.47-.877-3.556-.251-.959-.82-2.283-1.345-3.444-.526-1.162-1.004-2.118-1.004-2.118l-1.74.013s.806 1.957 1.318 3.086c.511 1.13 1.081 2.513 1.248 3.147.182.695.782 1.955.807 3.071s.045 2.304.475 3.386c.72 1.815 1.165 3.893 3.184 4.865z" style="fill:gray;fill-opacity:1;fill-rule:evenodd;stroke:none"/></g><g id="tincture1-2" style="stroke-width:1.27372122;stroke-miterlimit:4;stroke-dasharray:none"><path d="M612.105 281.77s5.375-2.793 7.605-3.329c2.541-.61 6.167-.539 8.686.164 2.117.59 4.91 2.5 4.91 2.5s2.906-2.786 4.326-3.63c2.45-1.457 5.547-1.146 8.236-.274 2.408.781 4.731 2.699 6.67 4.39 3.065 2.672 7.367 5.184 9.707 8.571 1.787 2.586 2.814 4.258 4.689 7.729 1.069 1.98 2.427 5.298 3.32 6.86 2.49 4.359 7.282 13.386 7.282 13.386s-5.351 2.158-8.321 2.65c-2.367.393-4.201.381-6.382-.663-1.41-.674-4.15-3.504-4.15-3.504s-3.823 3.227-5.512 3.64c-2.335.569-6.214.237-8.538-.375-2.28-.6-5.045-1.495-6.91-3.002-3.508-2.833-6.038-5.322-8.587-9.124-1.394-2.078-3.1-6.952-4.682-10.46-1.082-2.399-3.07-5.58-4.025-7-1.822-2.704-3.683-3.985-5.743-6.493-.674-.821-2.581-2.037-2.581-2.037z" style="fill:red;stroke:gray;stroke-width:1.27372122;stroke-linecap:butt;stroke-linejoin:miter;stroke-miterlimit:4;stroke-opacity:1;stroke-dasharray:none;display:inline"/><path d="m634.381 280.245-1.287 1.338s3.861 2.844 5.355 4.337c1.554 1.552 6.527 7.998 6.527 7.998s-.999-2.494-2.26-4.917c-.842-1.62-2.542-3.704-3.354-4.515-1.966-1.964-4.981-4.24-4.981-4.24m14.588 22.253s.622 1.72 1.886 4.446c1.045 2.254 3.051 4.982 3.973 6.08 1.291 1.54 3.229 4.61 3.229 4.61l1.846-.43s-3.504-4.902-4.442-6.02c-1.683-2.006-6.492-8.686-6.492-8.686" style="fill:gray;fill-opacity:1;fill-rule:evenodd;stroke:none"/></g><g id="tincture2-1" style="stroke-width:1.27372122;stroke-miterlimit:4;stroke-dasharray:none"><path d="M655.346 283.602s5.235-2.26 7.495-2.632c2.575-.424 6.187-.088 8.654.797 2.072.743 4.734 2.853 4.734 2.853s3.081-2.569 4.553-3.307c2.541-1.275 5.61-.74 8.235.327 2.35.954 4.542 3.037 6.365 4.866 2.881 2.889 5.917 6.698 8.029 10.248 1.612 2.709 2.527 4.452 4.169 8.052.936 2.053 1.63 6.108 2.417 7.732.813 1.675 1.673 4.062 2.767 6.407 1.866 4 4.086 7.69 4.086 7.69s-4.77.19-7.764.465c-2.387.22-3.863-.202-5.97-1.402-1.36-.776-3.91-3.799-3.91-3.799s-4.025 2.941-5.737 3.229c-2.366.398-6.214-.216-8.492-.995-2.236-.766-4.935-1.86-6.697-3.5-3.312-3.08-5.361-5.883-7.654-9.862-1.254-2.174-2.635-7.161-3.983-10.776-.921-2.472-2.694-5.791-3.555-7.276-1.64-2.832-3.411-4.245-5.301-6.897-.619-.869-2.441-2.22-2.441-2.22z" style="fill:#ff0;stroke:gray;stroke-width:1.27372122;stroke-linecap:butt;stroke-linejoin:miter;stroke-miterlimit:4;stroke-opacity:1;stroke-dasharray:none;display:inline"/><path d="m677.146 283.906-2.159.615s5.59 4.634 6.982 6.232c1.448 1.662 5.082 7.479 5.082 7.479s-1.408-3.158-2.506-5.668c-.734-1.677-2.131-3.332-2.888-4.2-1.832-2.103-4.51-4.458-4.51-4.458m13.302 23.185s.212 1.507 1.294 4.319c.894 2.324 2.964 5.916 3.811 7.08 1.188 1.63 2.98 4.356 2.98 4.356l1.97-.21s-4.26-6.213-5.122-7.398c-1.548-2.124-4.933-8.147-4.933-8.147" style="fill:gray;fill-opacity:1;fill-rule:evenodd;stroke:none"/></g></g></g></svg>