<svg xmlns="http://www.w3.org/2000/svg" id="svg2448" viewBox="0 0 729.209 746.244"><g id="layer1" transform="translate(-8.669 -181.648)"><path id="path2072" d="M270.714 541.71c-23.125 84.276-103.846 109.567-118.912 115.158-19.584 7.267-108.476-5.59-108.476-5.59s50.553 12.734 59.59 21.123c21.527 19.985 51.899 107.464 69.978 118.646 18.08 11.181 36.159 0 45.198 5.59 9.04 5.591 86.712 30.386 162.617 29.73 87.43-.756 138.705-21.343 150.758-26.934 12.053-5.59 30.132 8.386 45.198-2.796s60.265-106.224 78.344-122.996c18.08-16.773 51.225-19.568 51.225-19.568s-84.37 16.772-102.45 8.386-87.108-34.615-108.763-114.657" style="fill:#ff0;fill-rule:evenodd;stroke:gray;stroke-width:3;stroke-linecap:butt;stroke-linejoin:miter;stroke-miterlimit:4;stroke-dasharray:none;stroke-opacity:1;display:inline"/><path id="path2074" d="M43.247 651.156c-24.106 19.568-33.078 36.497-33.078 61.656s25.866 55.67 37.919 75.238c40.613 1.505 70.632 2.52 119.767.605-14.2-33.204-50.079-99.052-64.217-116.666-13.813-17.207-60.391-20.833-60.391-20.833z" style="fill:#666;fill-rule:evenodd;stroke:gray;stroke-width:3;stroke-linecap:butt;stroke-linejoin:miter;stroke-miterlimit:4;stroke-dasharray:none;stroke-opacity:1;display:inline"/><path id="path2076" d="M709.368 653.971c-40.74 2.068-91.863 15.044-16.69 2.534-11.275 2.43-26.842 7.164-37.631 17.173-13.49 12.515-49.229 81.115-69.132 113.431 29.176 1.022 75.082 2.415 103.365 1.579 18.079-13.977 47.097-59.144 47.097-81.507s.11-36.438-27.009-53.21z" style="fill:#666;fill-rule:evenodd;stroke:gray;stroke-width:3;stroke-linecap:butt;stroke-linejoin:miter;stroke-miterlimit:4;stroke-dasharray:none;stroke-opacity:1;display:inline"/><path id="path2085" d="M203.112 632.879c17.216 6.136 47.208 30.097 49.874 32.905 18.86 19.867 51.779 25.964 73.582 38.606 24.106 13.977 54.238 45.143 54.238 45.143s29.046-37.933 53.152-47.596c22.052-8.84 61.129-14.59 83.1-35.816 2.353-2.273 26.48-24.779 42.025-29.171" style="fill:none;fill-rule:evenodd;stroke:gray;stroke-width:3;stroke-linecap:butt;stroke-linejoin:miter;stroke-miterlimit:4;stroke-dasharray:none;stroke-opacity:1;display:inline"/><path id="path2141" d="M247.422 353.473s10.326 85.987 33.266 123.274c12.848 20.884 44.97 54.124 64.242 51.141s38.09-28.554 38.09-28.554 17.895 20.884 37.167 26.85 51.38-26.262 59.886-42.613c22.877-43.977 36.711-121.473 36.711-121.473s9.637-29.834-22.484-38.784-42.213-19.05-59.197-11.716c-26.152 11.293-50.015 44.533-50.015 44.533s-25.697-31.537-47.493-41.55c-17.513-8.046-54.84-20.027-74.112-8.093-19.273 11.933-16.06 46.985-16.06 46.985z" style="fill:#4d4d4d;fill-rule:evenodd;stroke:#000;stroke-width:3;stroke-linecap:butt;stroke-linejoin:miter;stroke-miterlimit:4;stroke-dasharray:none;stroke-opacity:1;display:inline"/><path id="path2143" d="M362.985 261.026c-81.79 1.113-151.4 62.434-151.4 83.53 0 37.499 8.372 110.573 23.939 142.121 30.502 57.658 72.377 118.445 150.106 118.084 73.557-.341 119.248-48.985 141.695-121.389 11.608-28.126 27.82-101.764 27.821-133.408 4.543 4.22-34.705-91.048-192.161-88.938zm-82.17 40.563c19.45-1.288 43.801 6.885 56.936 12.92 21.796 10.013 47.232 41.765 47.232 41.765s23.99-33.476 50.143-44.77c16.984-7.334 27.08 2.768 59.201 11.719 32.122 8.95 22.322 38.76 22.322 38.76s-13.678 77.713-36.556 121.69c-8.506 16.35-29.871 45.018-49.144 39.051s-47.907-53.253-47.907-53.253-29.605 47.102-48.878 50.085c-19.272 2.984-40.5-21.91-53.35-42.794-22.94-37.287-33.32-123.192-33.32-123.192s-3.421-35.24 15.851-47.174c4.819-2.983 10.986-4.378 17.47-4.807z" style="fill:#ff0;fill-rule:evenodd;stroke:gray;stroke-width:3;stroke-linecap:butt;stroke-linejoin:miter;stroke-miterlimit:4;stroke-dasharray:none;stroke-opacity:1;display:inline"/><path id="path2197" d="M384.147 183.713c20.362.433 78.822 32.424 120.603 64.035 39.793 30.107 66.23 69.155 69.219 80.26s-9.709 77.56-9.709 77.56-2.99-13.881-11.957-24.987c-7.85-9.72-88.652-53.965-144.766-66.71.307.1-21.872-6.184-22.196-5.892-.531.953-20.44 4.662-21.138 3.933-58.462 8.986-150.381 56.407-155.662 68.67-5.978 13.881-8.968 19.434-8.968 19.434s-8.776-66.633-5.786-77.739c2.989-11.105 36.803-49.542 70.15-74.529 34.899-26.149 99.749-64.47 120.21-64.035z" style="fill:#ff0;fill-rule:evenodd;stroke:gray;stroke-width:3;stroke-linecap:butt;stroke-linejoin:miter;stroke-miterlimit:4;stroke-dasharray:none;stroke-opacity:1;display:inline"/><path id="path2200" d="m310.46 239.078 27.519-17.043s4.032 14.694 6.862 34.25c3.13 21.633 1.805 40.808 1.205 40.994-9.908 3.073-16.863 4.476-23.914 8.034-.113.044-.732-20.25-4.291-41.251-3.352-19.778-7.847-24.984-7.38-24.984z" style="fill:#4d4d4d;fill-rule:evenodd;stroke:gray;stroke-width:3;stroke-linecap:butt;stroke-linejoin:miter;stroke-miterlimit:4;stroke-dasharray:none;stroke-opacity:1;display:inline"/><path id="path2202" d="m265.458 269.085 23.596-16.901s2.007 4.75 6.593 26.395c4.766 22.49 3.03 33.802 3.03 33.802l-18.61 8.814s-3.737-22.59-6.759-32.395c-4.556-14.786-7.85-19.715-7.85-19.715z" style="fill:#4d4d4d;fill-rule:evenodd;stroke:gray;stroke-width:3;stroke-linecap:butt;stroke-linejoin:miter;stroke-miterlimit:4;stroke-dasharray:none;stroke-opacity:1;display:inline"/><path id="path2204" d="M247.892 283.205s4.044 8.92 6.91 21.048c3.456 14.62 4.445 25.13 4.445 25.13l-15.935 9.053s-.98-8.478-3.4-20.257c-2.33-11.353-7.537-21.002-7.537-21.002z" style="fill:#4d4d4d;fill-rule:evenodd;stroke:gray;stroke-width:3;stroke-linecap:butt;stroke-linejoin:miter;stroke-miterlimit:4;stroke-dasharray:none;stroke-opacity:1;display:inline"/><path id="path2231" d="M382.071 183.805c-5.445-.115-17.283 4.982-27.384 9.397 1.663 2.42 14.067 29.055 14.067 65.755 0 28.12-3.828 52.547-3.828 52.547l.323 1.202c8.304-1.319 21.115-3.122 20.091-3.418.63.263 14.552 3.606 20.391 4.734l.97-2.104s-7.512-23.93-7.512-52.05c0-37.765 11.296-63.112 13.766-66.812-8.252-4.719-26.19-9.15-30.884-9.25z" style="fill:#ff0;fill-rule:evenodd;stroke:gray;stroke-width:3;stroke-linecap:butt;stroke-linejoin:miter;stroke-miterlimit:4;stroke-dasharray:none;stroke-opacity:1;display:inline"/><path id="path2238" d="m463.217 241.601-26.79-18.016s-4.64 14.538-8.28 33.978c-4.025 21.505-3.499 40.713-2.907 40.92 9.773 3.426 16.664 5.077 23.563 8.886.11.048 1.572-20.209 6.001-41.067 4.171-19.643 8.879-24.684 8.413-24.7z" style="fill:#4d4d4d;fill-rule:evenodd;stroke:gray;stroke-width:3;stroke-linecap:butt;stroke-linejoin:miter;stroke-miterlimit:4;stroke-dasharray:none;stroke-opacity:1;display:inline"/><path id="path2240" d="m506.94 273.198-22.877-17.734s-2.203 4.674-7.685 26.14c-5.696 22.303-4.432 33.668-4.432 33.668l18.231 9.475s4.672-22.44 8.099-32.13c5.167-14.612 8.664-19.419 8.664-19.419z" style="fill:#4d4d4d;fill-rule:evenodd;stroke:gray;stroke-width:3;stroke-linecap:butt;stroke-linejoin:miter;stroke-miterlimit:4;stroke-dasharray:none;stroke-opacity:1;display:inline"/><path id="path2242" d="M523.906 287.938s-4.412 8.768-7.78 20.784c-4.06 14.486-5.485 24.951-5.485 24.951l15.547 9.618s1.332-8.436 4.238-20.12c2.801-11.261 8.404-20.716 8.404-20.716z" style="fill:#4d4d4d;fill-rule:evenodd;stroke:gray;stroke-width:3;stroke-linecap:butt;stroke-linejoin:miter;stroke-miterlimit:4;stroke-dasharray:none;stroke-opacity:1;display:inline"/><path id="path2312" d="M383.042 469.55s-6.912 10.883-16.175 22.536l.647 4.206c10.092 18.747 14.88 55.887 14.88 55.887.001 0 7.637-35.87 15.206-55.586.128-.065-.04-4.079 0-5.71-8.265-11.218-14.558-21.333-14.558-21.333z" style="fill:#ff0;fill-rule:evenodd;stroke:gray;stroke-width:3;stroke-linecap:butt;stroke-linejoin:miter;stroke-miterlimit:4;stroke-dasharray:none;stroke-opacity:1;display:inline"/><path id="path2317" d="m382.255 550.995.892 43.082" style="fill:none;fill-rule:evenodd;stroke:gray;stroke-width:3;stroke-linecap:butt;stroke-linejoin:miter;stroke-miterlimit:4;stroke-dasharray:none;stroke-opacity:1;display:inline"/><path id="path4305" d="m382.303 182.648 3.612 128.225" style="fill:gray;fill-rule:evenodd;stroke:#000;stroke-width:2;stroke-linecap:butt;stroke-linejoin:miter;stroke-miterlimit:4;stroke-dasharray:none;stroke-opacity:1;display:inline"/><path id="path4310" d="m382.945 473.057-.638 68.96" style="fill:none;fill-rule:evenodd;stroke:#999;stroke-width:2;stroke-linecap:butt;stroke-linejoin:miter;stroke-miterlimit:4;stroke-dasharray:none;stroke-opacity:1;display:inline"/><path id="path6106" d="M384.125 183.733a20 20 0 0 0-2.037.089c4.693.1 22.62 4.495 30.873 9.213-2.47 3.7-13.775 29.076-13.775 66.841 0 28.12 7.53 52.046 7.53 52.046l-.709 1.506c.191.053 1.572.45 1.55.443 56.114 12.745 136.906 56.987 144.756 66.708 8.967 11.106 11.959 24.982 11.96 24.982 0 0 12.689-66.454 9.7-77.56-2.99-11.105-29.44-50.155-69.233-80.262-41.781-31.611-100.252-63.573-120.615-64.006Zm21.882 129.695c-2.489-.691-20.384-5.72-20.686-5.448-.474.852-16.352 3.908-20.242 4.03l.177.71c8.045-1.278 20.325-3.035 20.154-3.411.83.309 14.538 3.576 20.331 4.695zm-40.928-1.417-.133-.487s3.81-24.458 3.81-52.578c0-36.7-12.423-63.314-14.087-65.734 6.314-2.759 13.318-5.81 19.003-7.662-26.859 7.821-79.497 39.545-109.718 62.19-33.348 24.987-67.174 63.442-70.163 74.547-2.99 11.106 5.803 77.738 5.803 77.738s2.969-5.564 8.947-19.446c5.281-12.262 97.19-59.671 155.652-68.657.074.078.422.104.886.089zm17.009-128.189c-1.696-.036-4.086.443-6.777 1.24 2.517-.665 4.817-1.076 6.777-1.24zm-44.118 38.226s4.037 14.684 6.866 34.24c3.13 21.634 1.796 40.787 1.196 40.973-9.908 3.072-16.868 4.503-23.92 8.061-.112.044-.692-20.28-4.251-41.282-3.352-19.777-7.864-24.982-7.398-24.982zm98.468 1.55 26.798 17.984c.466.017-4.245 5.074-8.416 24.717-4.43 20.858-5.913 41.109-6.024 41.061-6.899-3.809-13.792-5.434-23.565-8.859-.592-.208-1.103-19.423 2.923-40.928 3.64-19.44 8.284-33.974 8.284-33.974zm-147.369 28.57s2.013 4.755 6.6 26.4c4.766 22.49 3.012 33.797 3.012 33.797l-18.604 8.815s-3.755-22.574-6.777-32.38c-4.556-14.786-7.84-19.71-7.84-19.71zm194.985 3.279 22.9 17.762s-3.514 4.789-8.681 19.4c-3.427 9.69-8.106 32.159-8.106 32.159l-18.205-9.48s-1.267-11.36 4.43-33.663c5.482-21.465 7.662-26.178 7.662-26.178zm-236.18 27.772s4.045 8.913 6.91 21.04c3.456 14.62 4.475 25.115 4.475 25.115l-15.946 9.08s-.992-8.507-3.411-20.286c-2.332-11.353-7.53-20.996-7.53-20.996zm276.046 4.74 14.927 14.484s-5.615 9.469-8.416 20.73c-2.906 11.684-4.252 20.11-4.252 20.11l-15.548-9.612s1.432-10.452 5.493-24.938c3.368-12.016 7.796-20.774 7.796-20.774z" style="display:inline;opacity:.33858301;fill:#4d4d4d;fill-opacity:1;fill-rule:evenodd;stroke:gray;stroke-width:3;stroke-linecap:butt;stroke-linejoin:miter;stroke-miterlimit:4;stroke-dasharray:none;stroke-opacity:1"/><path id="path7933" d="M381.51 184.444c-5.208-.113-16.526 4.859-26.185 9.166 1.59 2.36 13.451 28.342 13.451 64.143 0 27.43-3.66 51.259-3.66 51.259l.309 1.172c7.94-1.286 20.189-3.045 19.21-3.334.603.257 13.914 3.517 19.497 4.618l.928-2.052s-7.183-23.344-7.183-50.775c0-36.839 10.8-61.565 13.163-65.174-7.891-4.603-25.043-8.926-29.53-9.023z" style="display:inline;opacity:.32677199;fill:#999;fill-opacity:1;fill-rule:evenodd;stroke:gray;stroke-width:3;stroke-linecap:butt;stroke-linejoin:miter;stroke-miterlimit:4;stroke-dasharray:none;stroke-opacity:1"/><path id="path12392" d="m364.96 311.542.132.487c3.89-.123 19.768-3.18 20.243-4.03.301-.272 18.197 4.756 20.685 5.447l.71-1.506c-22.562-2.284-27.086-3.516-41.77-.398zm41.06 1.904-.265.576c-5.794-1.12-19.5-4.386-20.332-4.695.172.376-12.11 2.133-20.154 3.41l-.177-.708c-.464.015-.811-.011-.886-.089-6.998 1.076-14.485 2.69-22.236 4.74 20.73 11.767 43.01 39.6 43.01 39.6s17.205-24.015 38.36-38.227c-5.41-1.62-10.69-3.01-15.77-4.164.023.007-1.358-.39-1.55-.443zM247.578 354.33c-15.806 8.228-28.289 15.932-34.638 21.35 2.945 38.261 10.654 86.814 22.59 111.003 30.502 57.658 72.385 118.45 150.115 118.09 73.557-.342 119.252-49.008 141.699-121.412 8.67-21.01 19.893-67.393 25.026-102.72-.013-.016-.03-.027-.044-.044-2.964-3.67-16.349-12.274-34.86-22.236-.389 2.205-.797 3.632-.797 3.632s-13.71 77.701-36.588 121.678c-8.506 16.35-29.85 45.035-49.123 39.068s-47.926-53.287-47.927-53.287-29.584 47.114-48.857 50.098c-19.272 2.983-40.526-21.905-53.375-42.789-22.367-36.356-32.714-118.33-33.22-122.43z" style="opacity:.33858301;fill-opacity:1;fill-rule:evenodd;stroke:gray;stroke-width:3;stroke-linecap:butt;stroke-linejoin:miter;stroke-miterlimit:4;stroke-dasharray:none;stroke-opacity:1;display:inline"/><path id="path13290" d="M270.434 542.583c-23.45 83.557-103.609 108.71-118.621 114.28-19.584 7.268-108.478-5.58-108.478-5.58s50.54 12.739 59.577 21.128c21.527 19.985 51.906 107.44 69.985 118.621 18.08 11.182 36.141.035 45.18 5.625 9.04 5.591 86.747 30.379 162.651 29.722 87.432-.756 138.682-21.34 150.735-26.931 12.053-5.59 30.115 8.391 45.18-2.79 15.067-11.182 60.279-106.235 78.358-123.007 9.415-8.735 22.886-13.656 33.664-16.389-25.664 4.401-71.964 11.168-84.869 5.182-17.982-8.34-86.39-34.313-108.433-113.35-25.557 34.595-61.68 55.456-109.718 55.679-52.02.241-87.967-26.922-115.21-62.19zm418.231 114.679a861 861 0 0 0 17.585-3.19s-7.667.675-17.585 3.19z" style="opacity:.32677199;fill-opacity:1;fill-rule:evenodd;stroke:gray;stroke-width:3;stroke-linecap:butt;stroke-linejoin:miter;stroke-miterlimit:4;stroke-dasharray:none;stroke-opacity:1;display:inline"/></g></svg>