<svg xmlns="http://www.w3.org/2000/svg" id="svg4262" viewBox="0 0 691.118 800"><g id="layer1" transform="translate(30.135 -194.063)"><g id="g4950"><path id="path3914" d="M171.953 984.841c-58.635-16.086-46.542-57.485-24.785-114.245 17.121-44.666 25.934-124.682-3.727-188.385C78.938 543.68-30.135 488.795-30.135 488.795s50.38-53.207 110.946-101.283c41.955-33.303 118.278-87.457 126.311-99.159 29-42.241 148.547-117.634 269.983-87.267 115.5 28.882 109.855 179.124 106.843 316.234-1.517 69.09 4.7 135.421 14.285 182.369 19.591 35.491 13.728 42.387 1.62 57.07-53.244 64.564-152.739 35.267-181.265 75.77-146.85 208.508-227.504 157.56-246.635 152.312" style="fill:gray;stroke:none"/><path id="path3916" d="M494.181 711.629s-30.444-68.943-30.444-149.393c0-80.449-15.901-156.06-34.99-175.15-31.48-31.479-55.184-75.36-124.836-29.53 0 0 14.661 14.762 21.798 28.063 7.138 13.3 16.407 45.497 16.407 45.497s-72.59 27.119-129.48 45.47c-56.89 18.352-196.363 20.187-196.363 20.187S73.47 539.18 141.064 647.256c92.111 147.277 49.365 288.568 49.365 288.568s67.803 37.307 188.484-101.542S494.181 711.63 494.181 711.63" style="fill:#ff0;fill-opacity:1;stroke:none"/><path id="path3918" d="m171.971 967.178 8.693-17.386s-15.681-11.76-21.476-20.964-11.931-21.817-11.931-21.817-13.074 20.707 1.584 40.478 23.13 19.689 23.13 19.689" style="fill:#bbbdc0;fill-opacity:1;stroke:none"/><path id="path3920" d="M182.71 931.044s12.953-52.497 6.817-102.948c-6.136-50.452-23.18-107.72-23.18-107.72s12.158 88.196-2.046 132.264c-13.718 42.561-16.733 45.494 18.408 78.404" style="fill:#bbbdc0;fill-opacity:1;stroke:none"/><path id="path3922" d="M559.447 700.504c-1.438.009-2.998.006-4.532.09-67.758 4.217-115.327 73.798-167.697 134.974-72.95 85.222-116.593 108.395-141.137 115.212s-56.564 0-56.564 0l-8.158 21.212s38.864 13.568 95.451-8.25c114.894-86.117 156.77-174.247 212.023-213.382 68.178-55.224 114.488-14.957 114.488-14.957s.715-35.179-43.874-34.9" style="fill:#ff0;fill-opacity:1;stroke:none"/><path id="path3924" d="M449.635 805.565s38.8-44.87 61.708-60.26c30.853-20.73 76.17-6.268 76.17-6.268s-7.714 35.675-44.835 46.763c-37.12 11.088-93.043 19.765-93.043 19.765" style="fill:#636466;fill-opacity:1;stroke:none"/><path id="path3926" d="M-4.599 487.329s7.373-13.183 24.31-32.677c27.756-31.946 74.088-78.107 103.076-90.715 12.543-5.455-9.798 20.117-36.823 46.66-26.896 26.416-58.447 53.792-58.447 53.792s73.406 11.929 178.927-11.01c105.522-22.94 125.425-36.42 125.425-36.42l3.649 11.6s-126.32 52.347-212.573 56.934C36.692 490.081-4.6 487.33-4.6 487.33" style="fill:#ff0;fill-opacity:1;stroke:none"/><path id="path3928" d="M417.041 203.033c-15.298 1.596-86.88 8.586-113.785 29.061-33.477 15.587-155.607 165.829-170.212 158.397-9.22-4.691 83.792-96.262 116.753-128.084-5 3.426-10.015 6.91-14.956 10.606l.815.09c-11.105 7.1-31.614 23.159-65.447 59.193-28.548 30.405-65.628 83.939-65.628 83.939s57.322-1.815 99.53-9.156c42.128-7.326 113.729-28.309 110.408-27.738-5.9-10.721-12.348-17.43-15.772-23.93 29.625-24.697 68.196-30.863 93.003-16.136 95.698 58.468 73.399 202.524 83.214 260.248 12.518 73.613 31.727 104.607 31.727 104.607s11.756-10.02 37.71-11.966c25.952-1.946 42.784 2.629 42.784 2.629s-16.74-65.954-11.672-207.162c1.498-41.71 14.362-228.383-70.816-267.284-25.895-11.827-53.648-17.067-81.855-17.314a220 220 0 0 0-5.801 0" style="fill:#ff0;fill-opacity:1;stroke:none"/><path id="path3930" d="M104.46 432.01s3.178 10.157 62.287 7.137c38.476-1.966 151.177-38.28 151.177-38.28l11.678 9.732s-1.946-11.68-7.786-18.816c-5.839-7.137-6.488-5.84-6.488-5.84s-60.34 22.71-107.056 31.144c-46.716 8.435-103.812 14.923-103.812 14.923" style="fill:#bbbdc0;fill-opacity:1;stroke:none"/><path id="path3932" d="M357.486 357.042c-8.78 0-15.863 7.175-15.863 15.954a15.84 15.84 0 0 0 15.863 15.863c8.78 0 15.954-7.084 15.954-15.863s-7.175-15.954-15.954-15.954m.634 7.524a8.427 8.427 0 0 1 8.43 8.43 8.427 8.427 0 0 1-8.43 8.43 8.427 8.427 0 0 1-8.43-8.43 8.427 8.427 0 0 1 8.43-8.43" style="opacity:.98999999;fill:gray;fill-opacity:1;stroke:none"/><path id="path3934" d="M851.042 407.117a5.536 5.536 0 0 1-5.536 5.536 5.536 5.536 0 0 1-5.536-5.536 5.536 5.536 0 0 1 5.536-5.536 5.536 5.536 0 0 1 5.536 5.536" style="opacity:.98999999;fill:gray;fill-opacity:1;stroke:none" transform="translate(-2000.333 -489.71)scale(2.9007)"/><path id="path3936" d="M450.291 702.204s7.285-2.522 7.111-10.552c-.183-8.489-7.57-11.928-7.57-11.928s15.37-1.606 15.14 11.928-14.68 10.552-14.68 10.552" style="fill:#ff0;fill-opacity:1;stroke:none"/><path id="path3938" d="M851.042 407.117a5.536 5.536 0 0 1-5.536 5.536 5.536 5.536 0 0 1-5.536-5.536 5.536 5.536 0 0 1 5.536-5.536 5.536 5.536 0 0 1 5.536 5.536" style="opacity:.98999999;fill:gray;fill-opacity:1;stroke:none" transform="translate(-2018.685 -564.952)scale(2.9007)"/><path id="path3940" d="M431.94 626.963s7.284-2.522 7.11-10.552c-.183-8.49-7.57-11.929-7.57-11.929s15.37-1.606 15.14 11.929-14.68 10.552-14.68 10.552" style="fill:#ff0;fill-opacity:1;stroke:none"/><path id="path3942" d="M851.042 407.117a5.536 5.536 0 0 1-5.536 5.536 5.536 5.536 0 0 1-5.536-5.536 5.536 5.536 0 0 1 5.536-5.536 5.536 5.536 0 0 1 5.536 5.536" style="opacity:.98999999;fill:gray;fill-opacity:1;stroke:none" transform="translate(-2022.578 -646.704)scale(2.9007)"/><path id="path3944" d="M428.047 545.21s7.285-2.521 7.11-10.551c-.183-8.49-7.57-11.929-7.57-11.929s15.37-1.606 15.14 11.929-14.68 10.552-14.68 10.552" style="fill:#ff0;fill-opacity:1;stroke:none"/><path id="path3946" d="M851.042 407.117a5.536 5.536 0 0 1-5.536 5.536 5.536 5.536 0 0 1-5.536-5.536 5.536 5.536 0 0 1 5.536-5.536 5.536 5.536 0 0 1 5.536 5.536" style="opacity:.98999999;fill:gray;fill-opacity:1;stroke:none" transform="translate(-2024.413 -736.627)scale(2.9007)"/><path id="path3948" d="M426.211 455.288s7.285-2.522 7.112-10.552c-.184-8.49-7.57-11.929-7.57-11.929s15.37-1.606 15.14 11.929-14.682 10.552-14.682 10.552" style="fill:#ff0;fill-opacity:1;stroke:none"/><path id="path4415" d="M320.424 764.914c14.9 7.21 21.27-8.369 20.785-14.977-.788-10.737-16.917-22.886-14.531-27.667 2.45-4.91 26.038.216 29.643-12.281s-1.201-17.064-6.489-19.708c-6.746-3.373-14.332-3.573-20.668 11.056-3.768 8.699-4.438 7.395-6.883 6.16-2.94-1.484-2.01-9.285.153-16.735s-.24-19.227-9.132-19.948c-8.893-.72-15.241.51-18.353 10.75-2.306 7.585 6.336 16.648 12.344 22.657 6.009 6.008 1.923 10.334 1.923 10.334s-10.815 3.605-19.227 1.682c-8.411-1.922-14.643 8.06-14.18 14.18.552 7.277 3.606 14.18 14.901 15.381s17.218-14.683 20.95-13.781c4.434 1.071-3.455 26.19 8.764 32.897" style="fill:gray;stroke:none"/><path id="path4944" d="M353.818 567.18c-2.09-3.607 10.885-2.731 8.497-9.177-2.549-6.882-17.334-23.962-14.615-27.19 2.19-2.6 4.419 4.418 13.936 13.935s9.177 16.654 5.438 19.373-10.982 6.982-13.256 3.059" style="fill:#ff0;stroke:none" transform="translate(-30.135 194.063)"/><path id="path4946" d="M378.885 509.23c-.19 4.17-9.615 10.364-6.458 11.81 5.6 2.568 13.176-6.527 13.176-11.626 0-2.903-3.914-13.27-10.202-11.74s3.654 7.817 3.484 11.556" style="fill:#ff0;fill-opacity:1;stroke:none" transform="translate(-30.135 194.063)"/><path id="path4948" d="M312.697 679.746c.713 4.685-.808 28.872 3.245 30.053 3.263.95 1.229-6.127 3.876-19.323s-4.477-16.425-9.096-16.616c-2.482 1.233 1.261 1.2 1.975 5.886" style="fill:#ff0;stroke:none"/></g></g></svg>