<svg xmlns="http://www.w3.org/2000/svg" id="svg3136" viewBox="0 0 356.353 477.737"><g id="layer1"><g id="g3067"><path id="path5195" d="M89.7 234.4c19.69 3.938 35.44 3.938 42 3.938 6.563 0 22.31-2.625 34.13-6.563 11.81-3.938 26.25-2.625 35.44-11.81 9.188-9.188 22.31-17.06 26.25-27.56 3.938-10.5 5.25-11.81 6.563-21 1.313-9.188-1.312-36.75-3.938-48.56-2.625-11.81-15.75-31.5-26.25-35.44-10.5-3.938-27.56-6.563-35.44-6.563-7.875 0-26.25 6.563-36.75 10.5s-15.75 9.188-21 11.81c-5.25 2.625-7.875 5.25-14.44 5.25-6.563 0-22.31 0-30.19-5.25-7.875-5.25-13.13-2.625-14.44-13.13-1.312-10.5-2.625-11.81 0-18.38 2.625-6.563 6.563-11.81 10.5-17.06" style="fill:none;stroke:#000;stroke-width:3"/><path id="path3142" d="M70.6 69.01 41.83 83.86l-8.353 15.78-4.64 15.78.928 19.49 17.63 38.05 19.49 32.48 38.98 40.84 124.4-10.21s14.85-81.67 13.92-88.17c-.928-6.497-54.76-93.74-54.76-93.74l-80.74 12.99-38.05 1.856z" style="fill:#666;fill-rule:evenodd;stroke:gray;stroke-width:2"/><path id="path3631" d="M90 259.1v-31.64s30.76 8.108 50.04 2.381c21.9-6.508 35.35-6.155 50.09-13.92 9.188-4.842 27.14-18.58 34.88-38.56 5.054-13.05.185-39.63.185-39.63.95-1.399-1.473-26.82-25.23-40.77-16.35-9.6-45.86-14.18-91.41 10.74-15.5 4.385-33.94 11.35-58.6-.313-13.16-15.3-4.06-22.26-1.981-34.79 9.532-18.22 22.38-26.27 31.33-35.26 13.18-13.23 55.44-31.39 72.01-34.72s86.17 0 109.4 23.32c23.2 23.32 36.46 51.63 36.46 68.29s-8.286 51.63-11.6 68.29-33.14 49.97-31.49 66.62c1.657 16.66-1.657 39.97 11.6 49.97 13.26 9.993 28.17 21.65 43.09 19.99 14.91-1.665 1.657 4.997-14.91 14.99-16.57 9.993-34.8 26.65-43.09 43.3-8.286 16.66-31.49 59.96-44.74 69.95-13.26 9.993-16.57 13.32-28.17 13.32s-29.83-11.66-29.83-11.66-29.83 33.31-46.4 39.97c-16.57 6.662-34.8 8.328-46.4 6.662s-29.83-23.32-33.14-29.98c-3.314-6.662-3.314-28.31-3.314-38.31 0-9.993 1.657-16.66 1.657-16.66s-11.6 1.665-14.91-4.996c-3.314-6.662-4.971-21.65-3.314-29.98 1.657-8.328 14.91-28.31 21.54-31.64s14.91 4.997 23.2 1.665c8.286-3.33 11.6-9.993 19.89-14.99 8.286-4.997 18.23 0 23.2-16.66s0-58.29 0-58.29v23.32z" style="fill:#ff0;fill-rule:evenodd;stroke:gray;stroke-width:2"/><path id="path3633" d="M171.1 85.31c4.994 6.166 3.967 32.15 4.97 45.2 1.313 17.06 33.27 80.3 24.6 85.63-8.389 5.163-42.84-68.3-44.63-82.69-1.516-12.2-6.07-42.62-1.588-46.2 5.129-4.095 12.91-6.545 16.64-1.943z" style="fill:#b3b3b3;fill-rule:evenodd;stroke:gray;stroke-width:2"/><path id="path3635" d="M127.8 96.71c4.909 3.672 1.415 34.09 4.274 47.09 4.548 20.69 40.68 78.58 34.45 85.47-5.84 6.461-48.33-53.84-54.47-84-2.76-13.57-4.033-32.42-.109-40.85 2.943-6.321 11.96-10.63 15.86-7.716z" style="fill:#b3b3b3;fill-rule:evenodd;stroke:gray;stroke-width:2"/><path id="path3637" d="M73.7 106.6c2.079-2.599 14.67-1.269 15.9 2.266 2.358 6.768-3.541 19.3-1.115 36.34 3.571 25.08 48.61 80.41 40.67 90.56-7.3 9.33-58.45-63.64-60.38-91.88-1.478-21.66-.94-29.97 4.922-37.29z" style="fill:#b3b3b3;fill-rule:evenodd;stroke:gray;stroke-width:2"/><path id="path3639" d="M58.3 58.31c-15.72-3.269-24.1 28.17-27.56 41.67 16.6-22.7 11.78-26.66 21.33-33.8 0 0 3.609 0 6.234-7.875z" style="fill:#999;fill-rule:evenodd;stroke:#666;stroke-width:3"/><path id="path3641" d="M66.2 48.41c-9.188.984-6.303.637-13.45 3.938-4.266 1.969-7.547 8.859-10.5 14.77 8.826-10.08 15.1-11.31 19.03-13.13 2.379-1.395 3.609-2.953 4.922-5.578z" style="fill:#b3b3b3;fill-rule:evenodd;stroke:gray;stroke-width:2"/><path id="path3647" d="M51.1 74.71c-12.17 5.82-17.35 16.44-21.24 31.31-4.411 16.85 1.696 50.84 6.15 60.21 5.72 12.04 28.38 49.32 47.01 59.7 5.566 3.101-49.75-95.07-48.11-103.9 3.117-16.82 3.331-25.83 9.705-33.75 3.523-3.545 8.928-14.7 6.494-13.54z" style="fill:#b3b3b3;fill-rule:evenodd;stroke:gray;stroke-width:2"/><path id="path3649" d="M46.9 97.91c1.868-2.116 9.729 4.158 8.537 6.959-5.736 13.48-7.083 21.26-3.184 44.03 4.038 23.58 52.46 86.54 42.77 85.58-13.89-1.37-52.86-62.96-57.86-89.48-4.801-25.41.95-37.14 9.741-47.1z" style="fill:#b3b3b3;fill-rule:evenodd;stroke:gray;stroke-width:2"/><path id="path3651" d="M96.3 238.4v42c0 7.875-2.625 23.63-2.625 31.5" style="fill:gray;fill-rule:evenodd;stroke:gray;stroke-width:3"/><path id="path3653" d="M334.4 294.7c-10.8.377-18.86 5.355-18.86 5.355l-.476.12c-1.189 2.317-10.5 7.386-21.24 13.86-16.57 9.992-34.79 26.66-43.08 43.32-2.44 4.903-6.26 12.18-10.65 20.17h3.273c10.5-5.25 19.67-2.903 30.17.332 12.54 3.864 42.01 19.36 42.01 19.36s32.78-24.97 34.09-34.15c1.312-9.188 9.237-40.67 3.987-51.17s-1.334-15.76-14.46-17.08c-1.641-.165-3.217-.173-4.76-.12z" style="fill:#ff0;fill-rule:evenodd;stroke:gray;stroke-width:1.90401781"/><path id="path3655" d="M334.4 294.7c-6.785.271-13.71 2.282-19.46 5.712-5.7 4.353-13.09 8.457-19.59 12.7-17.05 10.3-32.67 23.88-42.94 41.12-4.062 7.785-29.84 53.21-38.77 65.52 19.53-24.12 31.68-43.01 34-44.51 2.951-3.205 4.575-7.665 6.911-11.41 4.866-9.358 10.62-18.52 19.05-25.09 10.15-8.712 21.14-16.36 32.14-23.94 6.456-5.683 9.901-6.769 13.11-9.042 4.199-2.9 20.53-7.97 25-2.566 2.006 4.081 6.032 7.065 6.517 13.17 1.904 12.21.203 24.59.605 36.86.722 1.545 1.202-5.207 1.78-7.061 1.622-10.41 3.88-21.14 1.815-31.64-2.064-4.751-3.594-9.704-5.228-14.62-4.268-5.038-9.83-5.155-14.94-5.212z" style="fill:gray;fill-rule:evenodd;stroke:gray;stroke-width:1.90401781"/><path id="path3657" d="M58.5 325.2c1.856 12.07 11.14 27.84 16.71 33.41" style="fill:gray;fill-rule:evenodd;stroke:gray;stroke-width:3"/><path id="path3659" d="M100.8 366.6c14.85 0 34.4-5.953 45.54-11.52 11.14-5.569 18.56-9.665 27.84-15.23" style="fill:gray;fill-rule:evenodd;stroke:gray;stroke-width:3"/><path id="path3661" d="M202.4 328c11.14-10.21 17.63-15.78 26.91-22.27 9.281-6.497 15.78-11.14 25.06-14.85 9.281-3.712 11.14-5.568 19.49-5.568" style="fill:gray;fill-rule:evenodd;stroke:gray;stroke-width:3"/><path id="path3663" d="M319.3 313.1c5.568 4.64 6.497 6.497 6.497 11.14 0 4.64 2.784 3.712 1.856 9.281-.928 5.568-.928 11.14-2.784 18.56-1.856 7.425-6.497 13.92-6.497 13.92" style="fill:gray;fill-rule:evenodd;stroke:gray;stroke-width:3"/><path id="path3665" d="M307.3 361.4c4.64-6.497 5.568-14.85 6.497-19.49.928-4.64 1.856-11.14.928-15.78s-5.568-9.281-5.568-9.281" style="fill:gray;fill-rule:evenodd;stroke:gray;stroke-width:3"/><path id="path3824" d="M87.7 406.6c-4.449 14.56-14.24 24.47-21.86 22.14-7.625-2.331-10.2-16.02-5.751-30.58s14.24-24.47 21.86-22.14c7.625 2.331 10.2 16.02 5.751 30.58z" style="fill:#ff0;stroke:gray;stroke-width:1.57561517"/><path id="path5203" d="M75.2 110.7c9.844 1.969 11.16 1.312 11.16 1.312" style="fill:none;stroke:gray;stroke-width:3"/><path id="path5205" d="M115.3 107.1c3.281-1.969 4.594-2.625 10.5-5.25" style="fill:none;stroke:gray;stroke-width:3"/><path id="path5207" d="M158.6 90.71c3.938 0 3.938-.656 9.188-.656" style="fill:none;stroke:gray;stroke-width:3"/><path id="path5209" d="M45.8 102.4c1.001 2.042 2.28 2.625 4.905 4.594" style="fill:none;stroke:gray;stroke-width:3"/><path id="path5211" d="M48.3 76.91c-.656 3.281-1.985 3.314-2.641 7.251" style="fill:none;stroke:gray;stroke-width:2"/><path id="path5216" d="M194.6 85.61c10.21 3.712 17.75 10.08 23.2 14.85 7.425 6.497 15.78 19.49 16.71 34.34" style="fill:none;stroke:gray;stroke-width:3"/><path id="path5218" d="M148.2 237.8c10.21-1.856 17.63-2.784 25.99-5.569 8.353-2.784 17.63-7.425 25.99-11.14 8.353-3.712 13.92-10.21 19.49-15.78" style="fill:none;stroke:gray;stroke-width:3"/><path id="path5222" d="M59.1 88.41c7.425-11.14 13.76-16.71 22.27-25.99 9.799-10.68 14.85-13.97 29.7-24.13" style="fill:none;stroke:gray;stroke-width:3"/><path id="path5224" d="M93.5 103.6c10.5 0 16.41-6.563 24.28-9.188 7.875-2.625 10.68-5.091 19.03-7.875 9.844-3.281 15.09-5.25 21.66-6.563" style="fill:none;stroke:gray;stroke-width:3"/></g></g></svg>