<svg xmlns="http://www.w3.org/2000/svg" id="svg6884" viewBox="0 0 491.823 651.269"><g id="layer1" transform="translate(-48.374 -295.979)"><g id="layer1-8" transform="translate(44.703 268.789)scale(.66643)"><g id="g6128" style="display:inline" transform="translate(-109.548 94.165)scale(3.89734)"><path id="path5195" d="M76.516 109.515c10.34 2.068 18.612 2.068 22.059 2.068 3.446 0 11.718-1.379 17.922-3.447s13.787-1.379 18.612-6.204c4.826-4.825 11.72-8.961 13.787-14.476s2.757-6.204 3.447-11.03-.69-19.3-2.068-25.505-8.272-16.544-13.787-18.612-14.476-3.446-18.612-3.446-13.787 3.446-19.301 5.514c-5.515 2.068-8.272 4.826-11.03 6.204s-4.136 2.758-7.582 2.758c-3.447 0-11.719 0-15.855-2.758s-6.893-1.378-7.583-6.893c-.689-5.515-1.378-6.204 0-9.65 1.379-3.447 3.447-6.205 5.515-8.962" style="fill:none;stroke:gray;stroke-width:3;stroke-linecap:butt;stroke-linejoin:miter;stroke-opacity:1;display:inline"/><g id="g3826" style="stroke:#000;stroke-width:1;stroke-opacity:1" transform="translate(28.263 14.476)"><path id="path3142" d="m38.237 8.184-15.11 7.798-4.387 8.287-2.437 8.286.487 10.236 9.262 19.985 10.236 17.06 20.472 21.447 65.316-5.362s7.799-42.894 7.311-46.306C128.9 46.203 100.63.385 100.63.385L58.222 7.209z" style="fill:gray;fill-rule:evenodd;stroke:gray;stroke-width:1;stroke-linecap:butt;stroke-linejoin:miter;stroke-opacity:1;display:inline"/><path id="path3631" d="M48.44 91.385s16.156 4.258 26.28 1.25c11.502-3.418 18.567-3.232 26.305-7.31 4.826-2.544 14.257-9.76 18.32-20.253 2.654-6.855.097-20.816.097-20.816.5-.734-.774-14.084-13.25-21.41-8.587-5.042-24.086-7.448-48.007 5.638-8.14 2.303-17.824 5.964-30.779-.164-6.913-8.036-2.131-11.69-1.04-18.27C31.372.48 38.12-3.748 42.821-8.468c6.922-6.95 19.839-15.925 37.822-18.237 21.19-2.723 45.258 0 57.443 12.247s18.34 21.739 19.147 35.864c1.328 23.25-1.905 23.806-6.092 35.863-7.745 16.936-27.643 46.99-10.444 61.232 6.962 5.248 19.639 11.55 27.472 10.676-17.352 8.194-41.343 47.99-58.805 67.175-10.717 8.744-18.41 8.41-30.462.874-13.816 14.189-27.92 27.193-48.74 24.493-16.642-5.546-19.14-20.876-19.147-35.864 0-5.249.87-8.747.87-8.747-9.496-.423-11.224-9.145-9.573-18.37 3.516-18.543 14.864-12.706 23.5-15.745 6.79-12.091 20.484-12.494 22.628-16.62 2.703-11.558 0-21.528 0-34.99z" style="fill:#ff0;fill-opacity:1;fill-rule:evenodd;stroke:gray;stroke-width:1;stroke-linecap:butt;stroke-linejoin:miter;stroke-opacity:1"/><path id="path3639" d="M31.77 2.536C23.515.82 19.113 17.33 17.294 24.422c3.62-10.601 11.73-16.438 14.476-21.886z" style="fill:gray;fill-rule:evenodd;stroke:gray;stroke-width:1;stroke-linecap:butt;stroke-linejoin:miter;stroke-opacity:1"/><path id="path3641" d="M35.906-2.634c-6.962.63-9.308 3.275-12.58 9.823 2.934-5.05 10.337-5.398 12.58-9.823z" style="fill:gray;fill-rule:evenodd;stroke:gray;stroke-width:1;stroke-linecap:butt;stroke-linejoin:miter;stroke-opacity:1"/><g id="visor"><path id="path3633" d="M91.032 16.715c-8.16 16.751 23.738 60.277 15.531 68.714-9.779-6.61-35.825-55.045-24.271-67.693 2.694-2.15 6.783-3.437 8.74-1.02z" style="fill:red;fill-rule:evenodd;stroke:#4d4d4d;stroke-width:1;stroke-linecap:butt;stroke-linejoin:miter;stroke-opacity:1"/><path id="path3635" d="M68.305 22.7C61.24 55.72 91.953 81.625 88.64 92.321c-16.53-10.493-38.635-44.104-28.664-65.57 1.545-3.32 6.282-5.584 8.329-4.053z" style="fill:red;fill-rule:evenodd;stroke:#4d4d4d;stroke-width:1;stroke-linecap:butt;stroke-linejoin:miter;stroke-opacity:1"/><path id="path3637" d="M39.87 27.928c1.092-1.365 7.702-.666 8.349 1.19-9.68 34.894 25.969 54.567 20.775 66.65-19.496-8.325-42.646-50.214-29.124-67.84z" style="fill:red;fill-rule:evenodd;stroke:#4d4d4d;stroke-width:1;stroke-linecap:butt;stroke-linejoin:miter;stroke-opacity:1"/><path id="path3647" d="M27.979 11.166c-29.385 21.623-1.18 67.812 16.76 79.422-2.827-23.172-33.145-39.33-20.17-72.313 1.85-1.862 4.688-7.72 3.41-7.11z" style="fill:red;fill-rule:evenodd;stroke:#4d4d4d;stroke-width:1;stroke-linecap:butt;stroke-linejoin:miter;stroke-opacity:1;display:inline"/><path id="path3649" d="M25.798 23.35c.981-1.111 5.11 2.184 4.483 3.655-15.03 16.984 21.41 67.964 20.79 68.074C33.167 81.671 9.645 41.11 25.799 23.35z" style="fill:red;fill-rule:evenodd;stroke:#4d4d4d;stroke-width:1;stroke-linecap:butt;stroke-linejoin:miter;stroke-opacity:1;display:inline"/></g><path id="path3651" d="M51.76 97.147c1.35 12.792 1.098 28.448-1.378 38.603" style="fill:none;stroke:gray;stroke-width:1;stroke-linecap:butt;stroke-linejoin:miter;stroke-opacity:1"/><path id="path3653" d="M176.79 126.72c-5.673.199-9.906 2.813-9.906 2.813-19.077 12.08-30.29 23.67-39.625 40.688h1.719c12.836.011 25.898.658 42.855.446 18.764-6.978 27.267-44.152 4.957-43.946z" style="fill:gray;fill-rule:evenodd;stroke:#666;stroke-width:1;stroke-linecap:butt;stroke-linejoin:miter;stroke-opacity:1"/><path id="path3655" d="M166.571 129.72c-36.178 19.17-36.274 37.932-53.742 62.679 10.255-12.667 17.178-22.592 18.395-23.378 4.527-12.54 37.544-45.384 50.352-37.837 5.772 7.576 5.926 7.676 3.92 26.274 5.972-9.855 3.837-26.992-.858-28-4.788-4.627-13.42-2.447-18.067.263z" style="fill:gray;fill-rule:evenodd;stroke:#666;stroke-width:1;stroke-linecap:butt;stroke-linejoin:miter;stroke-opacity:1"/><path id="path3657" d="M31.9 142.715c.976 6.337 5.85 14.623 8.775 17.548" style="fill:gray;fill-rule:evenodd;stroke:gray;stroke-width:1;stroke-linecap:butt;stroke-linejoin:miter;stroke-opacity:1"/><path id="path3659" d="M54.086 164.448c14.711-.66 27.475-7.43 38.542-14.052" style="fill:none;stroke:gray;stroke-width:1;stroke-linecap:butt;stroke-linejoin:miter;stroke-opacity:1"/><path id="path3661" d="M107.453 144.177c11.505-8.718 24.723-22.31 37.532-22.422" style="fill:none;stroke:gray;stroke-width:1;stroke-linecap:butt;stroke-linejoin:miter;stroke-opacity:1"/><path id="path3663" d="M168.87 136.378c5.985 8.42 5.004 19.67-.488 27.784" style="fill:gray;fill-rule:evenodd;stroke:#666;stroke-width:1;stroke-linecap:butt;stroke-linejoin:miter;stroke-opacity:1"/><path id="path3665" d="M162.533 161.725c4.338-7.153 4.969-19 .975-23.397" style="fill:gray;fill-rule:evenodd;stroke:#666;stroke-width:1;stroke-linecap:butt;stroke-linejoin:miter;stroke-opacity:1"/><path id="path3824" d="M-77.205 64.708a7.583 14.476 0 1 1-15.166 0 7.583 14.476 0 1 1 15.166 0z" style="fill:gray;fill-opacity:1;fill-rule:nonzero;stroke:#000;stroke-width:.9999997;stroke-miterlimit:4;stroke-opacity:1;stroke-dasharray:none;opacity:.5" transform="rotate(16.994 -419.208 541.558)"/></g><path id="path5203" d="M68.933 44.533c5.17 1.034 5.86.689 5.86.689" style="fill:none;stroke:#4d4d4d;stroke-width:1px;stroke-linecap:butt;stroke-linejoin:miter;stroke-opacity:1"/><path id="path5205" d="M89.42 43.367c1.723-1.034-.458-.482 4.259-2.22" style="fill:none;stroke:#4d4d4d;stroke-width:1px;stroke-linecap:butt;stroke-linejoin:miter;stroke-opacity:1"/><path id="path5207" d="M112.706 34.033c2.068 0 2.068-.345 4.825-.345" style="fill:none;stroke:#4d4d4d;stroke-width:1px;stroke-linecap:butt;stroke-linejoin:miter;stroke-opacity:1"/><path id="path5209" d="M53.483 40.177c.525 1.073 1.197 1.38 2.576 2.413" style="fill:none;stroke:#4d4d4d;stroke-width:1px;stroke-linecap:butt;stroke-linejoin:miter;stroke-opacity:1"/><path id="path5211" d="M54.802 26.795c-.345 1.723-1.043 1.74-1.387 3.808" style="fill:none;stroke:#4d4d4d;stroke-width:1px;stroke-linecap:butt;stroke-linejoin:miter;stroke-opacity:1"/><path id="path5216" d="M131.607 31.373c11.169 4.324 20.127 15.596 20.96 25.833" style="fill:none;stroke:gray;stroke-width:1px;stroke-linecap:butt;stroke-linejoin:miter;stroke-opacity:1"/><path id="path5218" d="M107.235 111.311c17.392-2.74 27.334-6.812 37.533-17.06" style="fill:none;stroke:#4d4d4d;stroke-width:1px;stroke-linecap:butt;stroke-linejoin:miter;stroke-opacity:1"/><path id="path5222" d="M60.442 32.835C67.175 20.48 77.994 11.867 87.738 6.513" style="fill:none;stroke:gray;stroke-width:1px;stroke-linecap:butt;stroke-linejoin:miter;stroke-opacity:1"/><path id="path5224" d="M78.515 40.818c10.46-1.748 19.677-10.391 34.122-12.408" style="fill:none;stroke:#4d4d4d;stroke-width:1px;stroke-linecap:butt;stroke-linejoin:miter;stroke-opacity:1"/></g></g></g></svg>