<svg xmlns="http://www.w3.org/2000/svg" id="svg73257" viewBox="0 0 956 197"><g id="g894" style="fill:#f2f2f2;stroke:#000" transform="matrix(1.44727 0 0 1.3457 -67.053 -948.089)"><g id="g3274" transform="rotate(20.22 194.275 274.439)"><g id="g3270"><path id="path2218" d="M302 749.781c-16.462-.628-24.82-1.285-25.75-1.25-.643.024 4.55-8.38 10.781-15.593 6.05-7.004-15.893-12.552-35.594-12.22-11.82.2-22.832 2.514-26.53 7.907-6.16 8.979-.148 20.5 1.874 31.188 3.094 16.353-1.128 27.432-.031 28.093 13.278 8.004 46.814 10.463 75.25 11.5" style="fill:#fcfcfc;fill-rule:evenodd;stroke:gray;stroke-width:3.75"/><path id="path2220" d="M277.43 748.41c-23.431-.427-57.639.043-54.66-15.885" style="fill:none;fill-opacity:.75;fill-rule:evenodd;stroke-width:3.75"/></g><path id="path2222" d="M253.738 747.914c-.123-5.468-5.875-17.124-3.047-14.27 3.007 3.036 41.126 4.678 35.542-5.335" style="fill:none;fill-opacity:.75;fill-rule:evenodd;stroke:gray;stroke-width:2.5"/><path id="path1132" d="M250.027 733.844c11.587 2.25 19.905 1.98 28.688.563-1.152 2.12 5.892-.695 6.828-2.812 3.57-8.077-17.628-8.828-35.962-8.795-11 .02-21.217 2.09-24.581 7.242-.3 10.21-11.985 14.384 27.368 16.567" style="fill:#999;fill-rule:evenodd;stroke:none;stroke-width:3.55434"/><path id="path1134" d="M277.43 748.41c-23.431-.427-57.639.043-54.66-15.885" style="fill:none;fill-opacity:.75;fill-rule:evenodd;stroke:gray;stroke-width:3.75"/></g><g id="g3328" transform="translate(-3.275 .5)"><path id="path3284" d="M625.934 756.58c15.203-6.345 22.804-9.883 23.687-10.175.61-.203-7.193-6.261-15.554-10.84-8.117-4.444 10.501-17.316 29.074-23.894 11.143-3.946 22.27-5.63 27.62-1.87 8.91 6.257 7.307 19.154 9.15 29.873 2.82 16.403 10.65 25.306 9.854 26.309-9.64 12.142-40.199 26.174-66.477 37.09" style="fill:#fcfcfc;fill-rule:evenodd;stroke:gray;stroke-width:3.75"/><path id="path3286" d="M648.473 746.705c21.803-8.595 54.015-20.118 45.654-33.998" style="fill:none;fill-opacity:.75;fill-rule:evenodd;stroke:gray;stroke-width:3.75"/><path id="path3288" d="M670.496 737.954c-1.797-5.166-.485-18.098-2.136-14.434-1.756 3.895-36.893 18.764-35.163 7.43" style="fill:none;fill-opacity:.75;fill-rule:evenodd;stroke:gray;stroke-width:2.5"/></g><path id="path3304" d="M622.805 756.97c-144.335 62.448-349.325 62.448-493.66 0" style="fill:none;fill-rule:evenodd;stroke:gray;stroke-width:3.75"/><path id="path3313" d="M640.26 803.43c-153.665 62.325-373.405 62.825-527.07.5" style="fill:none;fill-rule:evenodd;stroke:gray;stroke-width:3.75"/><path id="path3199" d="M665.087 723.315c-10.096 6.116-17.995 8.737-26.726 10.444 1.814 1.59-5.769 1.384-7.38-.28-6.14-6.344 13.492-14.376 30.707-20.682 10.329-3.783 20.632-5.37 25.57-1.7 3.81 9.477 16.217 9.355-19.956 25.005" style="fill:#999;fill-rule:evenodd;stroke:none;stroke-width:3.55434"/></g><g id="g1655" style="fill:#f2f2f2;stroke:#000" transform="matrix(1.51679 0 0 1.23219 -7.121 -859.38)"><path id="path3389" d="m129.145 756.97-15.954 46.96c173.767 66.515 347.02 58.114 527.068-.5l-17.454-46.46c-188.946 69.807-351.936 57.41-493.66 0" style="fill:#fff;stroke:none;stroke-width:.716556px" transform="matrix(.95416 0 0 1.09213 -39.513 -71.993)"/><path id="textPath" d="M29.895 777.147c69.418 40.372 194.867 75.318 289.889 73.814 97.078-1.536 247.009-36.658 290.178-76.155" style="fill:none;fill-rule:evenodd;stroke-width:1px"/></g></svg>